<?xml version="1.0" encoding="UTF-8"?>
<svg width="1200" height="1500" version="1.1" viewBox="0 0 317.5 396.88" xmlns="http://www.w3.org/2000/svg">
 <g fill="#fff" stroke="#000" stroke-linejoin="round" stroke-width="6.5778">
  <rect x="3.2889" y="3.2889" width="72.797" height="72.797" style="paint-order:markers stroke fill"/>
  <rect x="82.664" y="3.2889" width="72.797" height="72.797" style="paint-order:markers stroke fill"/>
  <rect x="162.04" y="3.2889" width="72.797" height="72.797" style="paint-order:markers stroke fill"/>
  <rect x="241.41" y="3.2889" width="72.797" height="72.797" style="paint-order:markers stroke fill"/>
  <rect x="3.2889" y="82.664" width="72.797" height="72.797" style="paint-order:markers stroke fill"/>
  <rect x="82.664" y="82.664" width="72.797" height="72.797" style="paint-order:markers stroke fill"/>
  <rect x="162.04" y="82.664" width="72.797" height="72.797" style="paint-order:markers stroke fill"/>
  <rect x="241.41" y="82.664" width="72.797" height="72.797" style="paint-order:markers stroke fill"/>
  <rect x="3.2889" y="162.04" width="72.797" height="72.797" style="paint-order:markers stroke fill"/>
  <rect x="82.664" y="162.04" width="72.797" height="72.797" style="paint-order:markers stroke fill"/>
  <rect x="162.04" y="162.04" width="72.797" height="72.797" style="paint-order:markers stroke fill"/>
  <rect x="241.41" y="162.04" width="72.797" height="72.797" style="paint-order:markers stroke fill"/>
  <rect x="3.2889" y="241.41" width="72.797" height="72.797" style="paint-order:markers stroke fill"/>
  <rect x="82.664" y="241.41" width="72.797" height="72.797" style="paint-order:markers stroke fill"/>
  <rect x="162.04" y="241.41" width="72.797" height="72.797" style="paint-order:markers stroke fill"/>
  <rect x="241.41" y="241.41" width="72.797" height="72.797" style="paint-order:markers stroke fill"/>
  <rect x="3.2889" y="320.79" width="72.797" height="72.797" style="paint-order:markers stroke fill"/>
  <rect x="82.664" y="320.79" width="72.797" height="72.797" style="paint-order:markers stroke fill"/>
  <rect x="162.04" y="320.79" width="72.797" height="72.797" style="paint-order:markers stroke fill"/>
  <rect x="241.41" y="320.79" width="72.797" height="72.797" style="paint-order:markers stroke fill"/>
 </g>
 <g style="font-variant-caps:normal;font-variant-east-asian:normal;font-variant-ligatures:normal;font-variant-numeric:normal">
  <path d="m29.104 23.46h1.4111v-1.4111h9.8778v1.4111h1.4111v1.4111h1.4111v25.4h5.6444v1.4111h1.4111v4.2333h-1.4111v1.4111h-18.344v-1.4111h-1.4111v-4.2333h1.4111v-1.4111h5.6444v-21.167h-5.6444v-1.4111h-1.4111zm11.289 0h-9.8778v4.2333h7.0556v23.989h-7.0556v4.2333h18.344v-4.2333h-7.0556v-26.811h-1.4111zm-8.4667 1.4111h7.0556v1.4111h1.4111v26.811h7.0556v1.4111h-7.0556v-1.4111h-1.4111v1.4111h-7.0556v-1.4111h7.0556v-26.811h-7.0556z" stroke-width=".26458" style="font-variant-caps:normal;font-variant-east-asian:normal;font-variant-ligatures:normal;font-variant-numeric:normal"/>
 </g>
 <g style="font-variant-caps:normal;font-variant-east-asian:normal;font-variant-ligatures:normal;font-variant-numeric:normal">
  <path d="m108.48 23.46h1.4111v-1.4111h16.933v1.4111h1.4111v1.4111h1.4111v15.522h-1.4111v1.4111h-1.4111v1.4111h-11.289v7.0556h12.7v1.4111h1.4111v4.2333h-1.4111v1.4111h-16.933v-1.4111h-1.4111v-1.4111h-1.4111v-15.522h1.4111v-1.4111h1.4111v-1.4111h11.289v-7.0556h-12.7v-1.4111h-1.4111zm18.344 0h-16.933v4.2333h14.111v9.8778h-12.7v1.4111h-1.4111v15.522h1.4111v1.4111h16.933v-4.2333h-14.111v-9.8778h12.7v-1.4111h1.4111v-15.522h-1.4111zm-15.522 1.4111h14.111v1.4111h1.4111v12.7h-1.4111v1.4111h-12.7v12.7h14.111v1.4111h-14.111v-1.4111h-1.4111v-12.7h1.4111v-1.4111h12.7v-12.7h-14.111z" stroke-width=".26458" style="font-variant-caps:normal;font-variant-east-asian:normal;font-variant-ligatures:normal;font-variant-numeric:normal"/>
 </g>
 <g stroke-width=".26458">
  <path d="m255.23 340.96h1.4111v-1.4111h16.933v1.4111h1.4111v1.4111h1.4111v15.522h-1.4111v1.4111h-1.4111v1.4111h-11.289v7.0556h12.7v1.4111h1.4111v4.2333h-1.4111v1.4111h-16.933v-1.4111h-1.4111v-1.4111h-1.4111v-15.522h1.4111v-1.4111h1.4111v-1.4111h11.289v-7.0556h-12.7v-1.4111h-1.4111zm18.344 0h-16.933v4.2333h14.111v9.8778h-12.7v1.4111h-1.4111v15.522h1.4111v1.4111h16.933v-4.2333h-14.111v-9.8778h12.7v-1.4111h1.4111v-15.522h-1.4111zm-15.522 1.4111h14.111v1.4111h1.4111v12.7h-1.4111v1.4111h-12.7v12.7h14.111v1.4111h-14.111v-1.4111h-1.4111v-12.7h1.4111v-1.4111h12.7v-12.7h-14.111z"/>
  <path d="m279.22 342.37h1.4111v-1.4111h1.4111v-1.4111h15.522v1.4111h1.4111v1.4111h1.4111v29.633h-1.4111v1.4111h-1.4111v1.4111h-15.522v-1.4111h-1.4111v-1.4111h-1.4111zm18.344-1.4111h-15.522v1.4111h-1.4111v29.633h1.4111v1.4111h15.522v-1.4111h1.4111v-29.633h-1.4111zm-15.522 2.8222h1.4111v-1.4111h12.7v1.4111h1.4111v26.811h-1.4111v1.4111h-12.7v-1.4111h-1.4111zm1.4111 26.811h12.7v-26.811h-12.7zm1.4111-25.4h9.8778v23.989h-9.8778zm1.4111 22.578h7.0556v-21.167h-7.0556z"/>
 </g>
 <g stroke-width=".26458">
  <path d="m187.85 23.46h1.4111v-1.4111h16.933v1.4111h1.4111v1.4111h1.4111v29.633h-1.4111v1.4111h-1.4111v1.4111h-16.933v-1.4111h-1.4111v-4.2333h1.4111v-1.4111h12.7v-7.0556h-11.289v-1.4111h-1.4111v-4.2333h1.4111v-1.4111h11.289v-7.0556h-12.7v-1.4111h-1.4111zm18.344 0h-16.933v4.2333h14.111v9.8778h-12.7v4.2333h12.7v9.8778h-14.111v4.2333h16.933v-1.4111h1.4111v-29.633h-1.4111zm-15.522 1.4111h14.111v1.4111h1.4111v12.7h-1.4111v1.4111h1.4111v12.7h-1.4111v1.4111h-14.111v-1.4111h14.111v-12.7h-12.7v-1.4111h12.7v-12.7h-14.111z" stroke-width=".26458"/>
  <path d="m267.23 23.46h1.4111v-1.4111h4.2333v1.4111h1.4111v12.7h7.0555v-12.7h1.4111v-1.4111h4.2333v1.4111h1.4111v32.455h-1.4111v1.4111h-4.2333v-1.4111h-1.4111v-12.7h-11.289v-1.4111h-1.4111v-1.4111h-1.4111zm1.4111 16.933h1.4111v1.4111h12.7v14.111h4.2333v-32.455h-4.2333v14.111h-9.8777v-14.111h-4.2333zm1.4111-15.522h1.4111v14.111h12.7v-14.111h1.4111v14.111h-1.4111v1.4111h1.4111v14.111h-1.4111v-14.111h-12.7v-1.4111h-1.4111z" stroke-width=".26458"/>
  <path d="m29.104 104.25h1.4111v-1.4111h1.4111v-1.4111h16.933v1.4111h1.4111v4.2333h-1.4111v1.4111h-12.7v7.0556h11.289v1.4111h1.4111v1.4111h1.4111v15.522h-1.4111v1.4111h-1.4111v1.4111h-16.933v-1.4111h-1.4111v-4.2333h1.4111v-1.4111h12.7v-7.0556h-11.289v-1.4111h-1.4111v-1.4111h-1.4111zm5.6444 2.8222h14.111v-4.2333h-16.933v1.4111h-1.4111v15.522h1.4111v1.4111h12.7v9.8778h-14.111v4.2333h16.933v-1.4111h1.4111v-15.522h-1.4111v-1.4111h-12.7zm-2.8222-1.4111h1.4111v-1.4111h14.111v1.4111h-14.111v12.7h12.7v1.4111h1.4111v12.7h-1.4111v1.4111h-14.111v-1.4111h14.111v-12.7h-12.7v-1.4111h-1.4111z" stroke-width=".26458"/>
  <path d="m108.48 104.25h1.4111v-1.4111h1.4111v-1.4111h16.933v1.4111h1.4111v4.2333h-1.4111v1.4111h-12.7v7.0556h11.289v1.4111h1.4111v1.4111h1.4111v15.522h-1.4111v1.4111h-1.4111v1.4111h-15.522v-1.4111h-1.4111v-1.4111h-1.4111zm5.6444 2.8222h14.111v-4.2333h-16.933v1.4111h-1.4111v29.633h1.4111v1.4111h15.522v-1.4111h1.4111v-15.522h-1.4111v-1.4111h-12.7zm-2.8222-1.4111h1.4111v-1.4111h14.111v1.4111h-14.111v12.7h12.7v1.4111h1.4111v12.7h-1.4111v1.4111h-12.7v-1.4111h-1.4111v-12.7h1.4111v-1.4111h-1.4111zm1.4111 26.811h12.7v-12.7h-12.7zm1.4111-11.289h9.8778v9.8778h-9.8778zm1.4111 8.4667h7.0556v-7.0556h-7.0556z" stroke-width=".26458"/>
  <path d="m187.85 104.25h1.4111v-1.4111h1.4111v-1.4111h15.522v1.4111h1.4111v1.4111h1.4111v31.044h-1.4111v1.4111h-4.2333v-1.4111h-1.4111v-26.811h-7.0556v11.289h-1.4111v1.4111h-4.2333v-1.4111h-1.4111zm18.344-1.4111h-15.522v1.4111h-1.4111v15.522h4.2333v-12.7h9.8778v28.222h4.2333v-31.044h-1.4111zm-1.4111 2.8222h-12.7v12.7h-1.4111v-12.7h1.4111v-1.4111h12.7v1.4111h1.4111v28.222h-1.4111z" stroke-width=".26458"/>
  <path d="m267.23 104.25h1.4111v-1.4111h1.4111v-1.4111h15.522v1.4111h1.4111v1.4111h1.4111v29.633h-1.4111v1.4111h-1.4111v1.4111h-15.522v-1.4111h-1.4111v-1.4111h-1.4111zm18.344-1.4111h-15.522v1.4111h-1.4111v29.633h1.4111v1.4111h15.522v-1.4111h1.4111v-29.633h-1.4111zm-15.522 2.8222h1.4111v-1.4111h12.7v1.4111h1.4111v12.7h-1.4111v1.4111h1.4111v12.7h-1.4111v1.4111h-12.7v-1.4111h-1.4111v-12.7h1.4111v-1.4111h-1.4111zm1.4111 12.7h12.7v-12.7h-12.7zm0 14.111h12.7v-12.7h-12.7zm1.4111-25.4h9.8778v9.8778h-9.8778zm0 14.111h9.8778v9.8778h-9.8778zm1.4111-5.6444h7.0556v-7.0556h-7.0556zm7.0556 7.0556h-7.0556v7.0556h7.0556z" stroke-width=".26458"/>
  <path d="m29.104 183.62h1.4111v-1.4111h1.4111v-1.4111h15.522v1.4111h1.4111v1.4111h1.4111v29.633h-1.4111v1.4111h-1.4111v1.4111h-16.933v-1.4111h-1.4111v-4.2333h1.4111v-1.4111h12.7v-7.0556h-11.289v-1.4111h-1.4111v-1.4111h-1.4111zm18.344-1.4111h-15.522v1.4111h-1.4111v15.522h1.4111v1.4111h12.7v9.8778h-14.111v4.2333h16.933v-1.4111h1.4111v-29.633h-1.4111zm-15.522 2.8222h1.4111v-1.4111h12.7v1.4111h1.4111v12.7h-1.4111v1.4111h1.4111v12.7h-1.4111v1.4111h-14.111v-1.4111h14.111v-12.7h-12.7v-1.4111h-1.4111zm1.4111 12.7h12.7v-12.7h-12.7zm1.4111-11.289h9.8778v9.8778h-9.8778zm1.4111 8.4667h7.0556v-7.0556h-7.0556z" stroke-width=".26458"/>
  <path d="m96.485 182.21h1.4111v-1.4111h9.8778v1.4111h1.4111v1.4111h1.4111v25.4h5.6444v1.4111h1.4111v4.2333h-1.4111v1.4111h-18.344v-1.4111h-1.4111v-4.2333h1.4111v-1.4111h5.6444v-21.167h-5.6444v-1.4111h-1.4111zm11.289 0h-9.8778v4.2333h7.0556v23.989h-7.0556v4.2333h18.344v-4.2333h-7.0556v-26.811h-1.4111zm-8.4667 1.4111h7.0556v1.4111h1.4111v26.811h7.0556v1.4111h-7.0556v-1.4111h-1.4111v1.4111h-7.0556v-1.4111h7.0556v-26.811h-7.0556z"/>
  <path d="m120.47 183.62h1.4111v-1.4111h1.4111v-1.4111h15.522v1.4111h1.4111v1.4111h1.4111v29.633h-1.4111v1.4111h-1.4111v1.4111h-15.522v-1.4111h-1.4111v-1.4111h-1.4111zm18.344-1.4111h-15.522v1.4111h-1.4111v29.633h1.4111v1.4111h15.522v-1.4111h1.4111v-29.633h-1.4111zm-15.522 2.8222h1.4111v-1.4111h12.7v1.4111h1.4111v26.811h-1.4111v1.4111h-12.7v-1.4111h-1.4111zm1.4111 26.811h12.7v-26.811h-12.7zm1.4111-25.4h9.8778v23.989h-9.8778zm1.4111 22.578h7.0556v-21.167h-7.0556z"/>
  <path d="m175.86 182.21h1.4111v-1.4111h9.8778v1.4111h1.4111v1.4111h1.4111v25.4h5.6444v1.4111h1.4111v4.2333h-1.4111v1.4111h-18.344v-1.4111h-1.4111v-4.2333h1.4111v-1.4111h5.6444v-21.167h-5.6444v-1.4111h-1.4111zm11.289 0h-9.8778v4.2333h7.0556v23.989h-7.0556v4.2333h18.344v-4.2333h-7.0556v-26.811h-1.4111zm-8.4667 1.4111h7.0556v1.4111h1.4111v26.811h7.0556v1.4111h-7.0556v-1.4111h-1.4111v1.4111h-7.0556v-1.4111h7.0556v-26.811h-7.0556z"/>
  <path d="m199.85 182.21h1.4111v-1.4111h9.8778v1.4111h1.4111v1.4111h1.4111v25.4h5.6444v1.4111h1.4111v4.2333h-1.4111v1.4111h-18.344v-1.4111h-1.4111v-4.2333h1.4111v-1.4111h5.6444v-21.167h-5.6444v-1.4111h-1.4111zm11.289 0h-9.8778v4.2333h7.0556v23.989h-7.0556v4.2333h18.344v-4.2333h-7.0556v-26.811h-1.4111zm-8.4667 1.4111h7.0556v1.4111h1.4111v26.811h7.0556v1.4111h-7.0556v-1.4111h-1.4111v1.4111h-7.0556v-1.4111h7.0556v-26.811h-7.0556z"/>
  <path d="m255.23 182.21h1.4111v-1.4111h9.8778v1.4111h1.4111v1.4111h1.4111v25.4h5.6444v1.4111h1.4111v4.2333h-1.4111v1.4111h-18.344v-1.4111h-1.4111v-4.2333h1.4111v-1.4111h5.6444v-21.167h-5.6444v-1.4111h-1.4111zm11.289 0h-9.8778v4.2333h7.0556v23.989h-7.0556v4.2333h18.344v-4.2333h-7.0556v-26.811h-1.4111zm-8.4667 1.4111h7.0556v1.4111h1.4111v26.811h7.0556v1.4111h-7.0556v-1.4111h-1.4111v1.4111h-7.0556v-1.4111h7.0556v-26.811h-7.0556z"/>
  <path d="m279.22 182.21h1.4111v-1.4111h16.933v1.4111h1.4111v1.4111h1.4111v15.522h-1.4111v1.4111h-1.4111v1.4111h-11.289v7.0556h12.7v1.4111h1.4111v4.2333h-1.4111v1.4111h-16.933v-1.4111h-1.4111v-1.4111h-1.4111v-15.522h1.4111v-1.4111h1.4111v-1.4111h11.289v-7.0556h-12.7v-1.4111h-1.4111zm18.344 0h-16.933v4.2333h14.111v9.8778h-12.7v1.4111h-1.4111v15.522h1.4111v1.4111h16.933v-4.2333h-14.111v-9.8778h12.7v-1.4111h1.4111v-15.522h-1.4111zm-15.522 1.4111h14.111v1.4111h1.4111v12.7h-1.4111v1.4111h-12.7v12.7h14.111v1.4111h-14.111v-1.4111h-1.4111v-12.7h1.4111v-1.4111h12.7v-12.7h-14.111z"/>
  <path d="m17.11 261.58h1.4111v-1.4111h9.8778v1.4111h1.4111v1.4111h1.4111v25.4h5.6444v1.4111h1.4111v4.2333h-1.4111v1.4111h-18.344v-1.4111h-1.4111v-4.2333h1.4111v-1.4111h5.6444v-21.167h-5.6444v-1.4111h-1.4111zm11.289 0h-9.8778v4.2333h7.0556v23.989h-7.0556v4.2333h18.344v-4.2333h-7.0556v-26.811h-1.4111zm-8.4667 1.4111h7.0556v1.4111h1.4111v26.811h7.0556v1.4111h-7.0556v-1.4111h-1.4111v1.4111h-7.0556v-1.4111h7.0556v-26.811h-7.0556z"/>
  <path d="m41.099 261.58h1.4111v-1.4111h16.933v1.4111h1.4111v1.4111h1.4111v29.633h-1.4111v1.4111h-1.4111v1.4111h-16.933v-1.4111h-1.4111v-4.2333h1.4111v-1.4111h12.7v-7.0556h-11.289v-1.4111h-1.4111v-4.2333h1.4111v-1.4111h11.289v-7.0556h-12.7v-1.4111h-1.4111zm18.344 0h-16.933v4.2333h14.111v9.8778h-12.7v4.2333h12.7v9.8778h-14.111v4.2333h16.933v-1.4111h1.4111v-29.633h-1.4111zm-15.522 1.4111h14.111v1.4111h1.4111v12.7h-1.4111v1.4111h1.4111v12.7h-1.4111v1.4111h-14.111v-1.4111h14.111v-12.7h-12.7v-1.4111h12.7v-12.7h-14.111z"/>
  <path d="m96.485 261.58h1.4111v-1.4111h9.8778v1.4111h1.4111v1.4111h1.4111v25.4h5.6444v1.4111h1.4111v4.2333h-1.4111v1.4111h-18.344v-1.4111h-1.4111v-4.2333h1.4111v-1.4111h5.6444v-21.167h-5.6444v-1.4111h-1.4111zm11.289 0h-9.8778v4.2333h7.0556v23.989h-7.0556v4.2333h18.344v-4.2333h-7.0556v-26.811h-1.4111zm-8.4667 1.4111h7.0556v1.4111h1.4111v26.811h7.0556v1.4111h-7.0556v-1.4111h-1.4111v1.4111h-7.0556v-1.4111h7.0556v-26.811h-7.0556z"/>
  <path d="m120.47 261.58h1.4111v-1.4111h4.2333v1.4111h1.4111v12.7h7.0556v-12.7h1.4111v-1.4111h4.2333v1.4111h1.4111v32.456h-1.4111v1.4111h-4.2333v-1.4111h-1.4111v-12.7h-11.289v-1.4111h-1.4111v-1.4111h-1.4111zm1.4111 16.933h1.4111v1.4111h12.7v14.111h4.2333v-32.456h-4.2333v14.111h-9.8778v-14.111h-4.2333zm1.4111-15.522h1.4111v14.111h12.7v-14.111h1.4111v14.111h-1.4111v1.4111h1.4111v14.111h-1.4111v-14.111h-12.7v-1.4111h-1.4111z"/>
  <path d="m175.86 261.58h1.4111v-1.4111h9.8778v1.4111h1.4111v1.4111h1.4111v25.4h5.6444v1.4111h1.4111v4.2333h-1.4111v1.4111h-18.344v-1.4111h-1.4111v-4.2333h1.4111v-1.4111h5.6444v-21.167h-5.6444v-1.4111h-1.4111zm11.289 0h-9.8778v4.2333h7.0556v23.989h-7.0556v4.2333h18.344v-4.2333h-7.0556v-26.811h-1.4111zm-8.4667 1.4111h7.0556v1.4111h1.4111v26.811h7.0556v1.4111h-7.0556v-1.4111h-1.4111v1.4111h-7.0556v-1.4111h7.0556v-26.811h-7.0556z"/>
  <path d="m199.85 263h1.4111v-1.4111h1.4111v-1.4111h16.933v1.4111h1.4111v4.2333h-1.4111v1.4111h-12.7v7.0556h11.289v1.4111h1.4111v1.4111h1.4111v15.522h-1.4111v1.4111h-1.4111v1.4111h-16.933v-1.4111h-1.4111v-4.2333h1.4111v-1.4111h12.7v-7.0556h-11.289v-1.4111h-1.4111v-1.4111h-1.4111zm5.6444 2.8222h14.111v-4.2333h-16.933v1.4111h-1.4111v15.522h1.4111v1.4111h12.7v9.8778h-14.111v4.2333h16.933v-1.4111h1.4111v-15.522h-1.4111v-1.4111h-12.7zm-2.8222-1.4111h1.4111v-1.4111h14.111v1.4111h-14.111v12.7h12.7v1.4111h1.4111v12.7h-1.4111v1.4111h-14.111v-1.4111h14.111v-12.7h-12.7v-1.4111h-1.4111z"/>
  <path d="m255.23 261.58h1.4111v-1.4111h9.8778v1.4111h1.4111v1.4111h1.4111v25.4h5.6444v1.4111h1.4111v4.2333h-1.4111v1.4111h-18.344v-1.4111h-1.4111v-4.2333h1.4111v-1.4111h5.6444v-21.167h-5.6444v-1.4111h-1.4111zm11.289 0h-9.8778v4.2333h7.0556v23.989h-7.0556v4.2333h18.344v-4.2333h-7.0556v-26.811h-1.4111zm-8.4667 1.4111h7.0556v1.4111h1.4111v26.811h7.0556v1.4111h-7.0556v-1.4111h-1.4111v1.4111h-7.0556v-1.4111h7.0556v-26.811h-7.0556z"/>
  <path d="m279.22 263h1.4111v-1.4111h1.4111v-1.4111h16.933v1.4111h1.4111v4.2333h-1.4111v1.4111h-12.7v7.0556h11.289v1.4111h1.4111v1.4111h1.4111v15.522h-1.4111v1.4111h-1.4111v1.4111h-15.522v-1.4111h-1.4111v-1.4111h-1.4111zm5.6444 2.8222h14.111v-4.2333h-16.933v1.4111h-1.4111v29.633h1.4111v1.4111h15.522v-1.4111h1.4111v-15.522h-1.4111v-1.4111h-12.7zm-2.8222-1.4111h1.4111v-1.4111h14.111v1.4111h-14.111v12.7h12.7v1.4111h1.4111v12.7h-1.4111v1.4111h-12.7v-1.4111h-1.4111v-12.7h1.4111v-1.4111h-1.4111zm1.4111 26.811h12.7v-12.7h-12.7zm1.4111-11.289h9.8778v9.8778h-9.8778zm1.4111 8.4667h7.0556v-7.0556h-7.0556z"/>
  <path d="m17.11 340.96h1.4111v-1.4111h9.8778v1.4111h1.4111v1.4111h1.4111v25.4h5.6444v1.4111h1.4111v4.2333h-1.4111v1.4111h-18.344v-1.4111h-1.4111v-4.2333h1.4111v-1.4111h5.6444v-21.167h-5.6444v-1.4111h-1.4111zm11.289 0h-9.8778v4.2333h7.0556v23.989h-7.0556v4.2333h18.344v-4.2333h-7.0556v-26.811h-1.4111zm-8.4667 1.4111h7.0556v1.4111h1.4111v26.811h7.0556v1.4111h-7.0556v-1.4111h-1.4111v1.4111h-7.0556v-1.4111h7.0556v-26.811h-7.0556z"/>
  <path d="m41.099 342.37h1.4111v-1.4111h1.4111v-1.4111h15.522v1.4111h1.4111v1.4111h1.4111v31.044h-1.4111v1.4111h-4.2333v-1.4111h-1.4111v-26.811h-7.0556v11.289h-1.4111v1.4111h-4.2333v-1.4111h-1.4111zm18.344-1.4111h-15.522v1.4111h-1.4111v15.522h4.2333v-12.7h9.8778v28.222h4.2333v-31.044h-1.4111zm-1.4111 2.8222h-12.7v12.7h-1.4111v-12.7h1.4111v-1.4111h12.7v1.4111h1.4111v28.222h-1.4111z"/>
  <path d="m96.485 340.96h1.4111v-1.4111h9.8778v1.4111h1.4111v1.4111h1.4111v25.4h5.6444v1.4111h1.4111v4.2333h-1.4111v1.4111h-18.344v-1.4111h-1.4111v-4.2333h1.4111v-1.4111h5.6444v-21.167h-5.6444v-1.4111h-1.4111zm11.289 0h-9.8778v4.2333h7.0555v23.989h-7.0555v4.2333h18.344v-4.2333h-7.0556v-26.811h-1.4111zm-8.4667 1.4111h7.0555v1.4111h1.4111v26.811h7.0556v1.4111h-7.0556v-1.4111h-1.4111v1.4111h-7.0555v-1.4111h7.0555v-26.811h-7.0555z"/>
  <path d="m120.47 342.37h1.4111v-1.4111h1.4111v-1.4111h15.522v1.4111h1.4111v1.4111h1.4111v29.633h-1.4111v1.4111h-1.4111v1.4111h-15.522v-1.4111h-1.4111v-1.4111h-1.4111zm18.344-1.4111h-15.522v1.4111h-1.4111v29.633h1.4111v1.4111h15.522v-1.4111h1.4111v-29.633h-1.4111zm-15.522 2.8222h1.4111v-1.4111h12.7v1.4111h1.4111v12.7h-1.4111v1.4111h1.4111v12.7h-1.4111v1.4111h-12.7v-1.4111h-1.4111v-12.7h1.4111v-1.4111h-1.4111zm1.4111 12.7h12.7v-12.7h-12.7zm0 14.111h12.7v-12.7h-12.7zm1.4111-25.4h9.8778v9.8778h-9.8778zm0 14.111h9.8778v9.8778h-9.8778zm1.4111-5.6444h7.0556v-7.0556h-7.0556zm7.0556 7.0556h-7.0556v7.0556h7.0556z"/>
  <path d="m175.86 340.96h1.4111v-1.4111h9.8778v1.4111h1.4111v1.4111h1.4111v25.4h5.6444v1.4111h1.4111v4.2333h-1.4111v1.4111h-18.344v-1.4111h-1.4111v-4.2333h1.4111v-1.4111h5.6444v-21.167h-5.6444v-1.4111h-1.4111zm11.289 0h-9.8778v4.2333h7.0556v23.989h-7.0556v4.2333h18.344v-4.2333h-7.0556v-26.811h-1.4111zm-8.4667 1.4111h7.0556v1.4111h1.4111v26.811h7.0556v1.4111h-7.0556v-1.4111h-1.4111v1.4111h-7.0556v-1.4111h7.0556v-26.811h-7.0556z"/>
  <path d="m199.85 342.37h1.4111v-1.4111h1.4111v-1.4111h15.522v1.4111h1.4111v1.4111h1.4111v29.633h-1.4111v1.4111h-1.4111v1.4111h-16.933v-1.4111h-1.4111v-4.2333h1.4111v-1.4111h12.7v-7.0556h-11.289v-1.4111h-1.4111v-1.4111h-1.4111zm18.344-1.4111h-15.522v1.4111h-1.4111v15.522h1.4111v1.4111h12.7v9.8778h-14.111v4.2333h16.933v-1.4111h1.4111v-29.633h-1.4111zm-15.522 2.8222h1.4111v-1.4111h12.7v1.4111h1.4111v12.7h-1.4111v1.4111h1.4111v12.7h-1.4111v1.4111h-14.111v-1.4111h14.111v-12.7h-12.7v-1.4111h-1.4111zm1.4111 12.7h12.7v-12.7h-12.7zm1.4111-11.289h9.8778v9.8778h-9.8778zm1.4111 8.4667h7.0556v-7.0556h-7.0556z"/>
 </g>
</svg>